<?xml version="1.0" encoding="iso-8859-1"?>
<!-- Uploaded to: SVG Repo, www.svgrepo.com, Generator: SVG Repo Mixer Tools -->
<!DOCTYPE svg PUBLIC "-//W3C//DTD SVG 1.1//EN" "http://www.w3.org/Graphics/SVG/1.1/DTD/svg11.dtd">
<svg fill="#fff" version="1.1" id="Capa_1" xmlns="http://www.w3.org/2000/svg" xmlns:xlink="http://www.w3.org/1999/xlink" 
	 width="800px" height="800px" viewBox="0 0 124.995 124.994"
	 xml:space="preserve">
<g>
	<g>
		<circle cx="62.823" cy="13.081" r="13.081"/>
		<path d="M101.717,28.623l-31.55-0.024c-1.28-0.758-2.67-1.33-4.087-1.678l-3.258,3.28l-3.159-3.316
			c-0.011,0.003-0.022,0.004-0.033,0.006c-1.463,0.351-2.898,0.941-4.215,1.731l-32.132-0.025c-0.001,0-0.003,0-0.003,0
			c-2.803,0-5.076,2.271-5.079,5.074c-0.002,2.805,2.27,5.08,5.074,5.083l26.159,0.02v28.392c0,1.367,0.265,2.641,0.73,3.812
			c-0.035,0.266-0.061,0.535-0.06,0.811l0.048,47.209c0.004,3.312,2.69,5.996,6.002,5.996c0.001,0,0.003,0,0.006,0
			c3.315-0.004,6-2.693,5.996-6.01l-0.02-19.307c0.88,0.469,1.851,0.707,2.821,0.707c1.578,0,3.155-0.617,4.334-1.849l20.775-21.679
			c1.664-1.736,2.131-4.297,1.188-6.508c-0.943-2.213-3.115-3.646-5.521-3.646h-9.521V38.759l25.499,0.021c0.001,0,0.003,0,0.003,0
			c2.805,0,5.077-2.271,5.079-5.074C106.794,30.9,104.522,28.625,101.717,28.623z M62.125,88.667l-0.011-9.989
			c0.236,0.01,0.471,0.029,0.708,0.029c0.293,0,0.584-0.021,0.874-0.038c0.215,0.024,0.432,0.038,0.651,0.038h7.321L62.125,88.667z"
			/>
	</g>
</g>
</svg>