<?xml version="1.0" encoding="iso-8859-1"?>
<!-- Uploaded to: SVG Repo, www.svgrepo.com, Generator: SVG Repo Mixer Tools -->
<!DOCTYPE svg PUBLIC "-//W3C//DTD SVG 1.1//EN" "http://www.w3.org/Graphics/SVG/1.1/DTD/svg11.dtd">
<svg fill="#fff" version="1.1" id="Capa_1" xmlns="http://www.w3.org/2000/svg" xmlns:xlink="http://www.w3.org/1999/xlink" 
	 width="800px" height="800px" viewBox="0 0 536.138 536.138"
	 xml:space="preserve">
<g>
	<g>
		<circle cx="69.582" cy="145.48" r="64.48"/>
		<path d="M523.083,8.66c-16.878-16.677-44.093-7-60.789,9.868L308.118,175.87l-55.663,6.741c-5.68,1.75-14.229,0.421-19.116-2.964
			l-7.698-5.327l109.165-85.049c16.381-12.756,19.326-36.395,6.551-52.784c-12.747-16.381-36.386-19.307-52.775-6.561
			L173.067,119.92c-7.124,5.556-11.542,13.196-13.397,21.362c-0.038,0.076-0.105,0.124-0.144,0.201c0,0-42.658,68.802-42.629,70.819
			c-8.587,11.38-10.385,27.11-3.185,40.469l62.682,116.414c6.799,12.613,19.756,19.785,33.144,19.785
			c6.024,0,12.135-1.444,17.805-4.504c18.284-9.85,25.121-32.656,15.281-50.949l-27.645-51.341l64.317,3.729v207.257
			c0,23.725,9.677,42.975,33.411,42.975s33.421-19.25,33.421-42.975V240.665c0-0.593-0.152-1.147-0.172-1.74l164.59-171.838
			C527.224,50.219,539.951,25.365,523.083,8.66z"/>
	</g>
</g>
</svg>